<svg width="110" height="36" viewBox="0 0 110 36" fill="none" xmlns="http://www.w3.org/2000/svg">
<circle cx="24.5315" cy="3.90507" r="3.01444" fill="#47B6F2"/>
<path fill-rule="evenodd" clip-rule="evenodd" d="M28.2182 4.28564C28.0307 6.15323 26.4543 7.61125 24.5373 7.61125C22.621 7.61125 21.045 6.15424 20.8566 4.28758C15.0786 5.93694 10.8388 11.3703 10.8388 17.8186C10.8388 17.8971 10.8394 17.9755 10.8407 18.0536C13.6052 13.6908 18.7055 10.7639 24.54 10.7639C30.3757 10.7639 35.4767 13.6919 38.2409 18.056C38.2422 17.9771 38.2428 17.8979 38.2428 17.8186C38.2428 11.3678 33.9998 5.93269 28.2182 4.28564Z" fill="#47B6F2"/>
<circle cx="3.01444" cy="3.01444" r="3.01444" transform="matrix(1 0 0 -1 21.517 35.9987)" fill="#47B6F2"/>
<path fill-rule="evenodd" clip-rule="evenodd" d="M28.2182 32.6035C28.0307 30.7359 26.4543 29.278 24.5373 29.278C22.621 29.278 21.045 30.7349 20.8566 32.6016C15.0786 30.9522 10.8388 25.5189 10.8388 19.0705C10.8388 18.992 10.8394 18.9137 10.8407 18.8355C13.6052 23.1984 18.7055 26.1253 24.54 26.1253C30.3757 26.1253 35.4767 23.1973 38.2409 18.8331C38.2422 18.9121 38.2428 18.9912 38.2428 19.0705C38.2428 25.5214 33.9998 30.9565 28.2182 32.6035Z" fill="#47B6F2"/>
<circle cx="3.01444" cy="18.4174" r="3.01444" transform="rotate(-90 3.01444 18.4174)" fill="#47B6F2"/>
<path fill-rule="evenodd" clip-rule="evenodd" d="M3.38513 14.739C5.25321 14.926 6.71176 16.5027 6.71176 18.42C6.71176 20.3368 5.25398 21.9131 3.38661 22.1008C5.03575 27.8792 10.4693 32.1193 16.9179 32.1193C16.9964 32.1193 17.0747 32.1187 17.1529 32.1174C12.79 29.3529 9.8631 24.2526 9.8631 18.4181C9.8631 12.5825 12.7911 7.48139 17.1552 4.71721C17.0763 4.71594 16.9972 4.7153 16.9179 4.7153C10.4673 4.7153 5.03249 8.95793 3.38513 14.739Z" fill="#47B6F2"/>
<circle cx="3.01444" cy="3.01444" r="3.01444" transform="matrix(4.37114e-08 -1 -1 -4.37114e-08 48.9422 21.4319)" fill="#47B6F2"/>
<path fill-rule="evenodd" clip-rule="evenodd" d="M45.55 14.7394C43.6836 14.928 42.2269 16.5039 42.2269 18.42C42.2269 20.3356 43.6828 21.9112 45.5485 22.1005C43.8995 27.8791 38.4659 32.1193 32.0171 32.1193C31.9387 32.1193 31.8603 32.1187 31.7822 32.1174C36.145 29.3529 39.0719 24.2526 39.0719 18.4181C39.0719 12.5825 36.1439 7.48139 31.7798 4.71721C31.8587 4.71594 31.9379 4.7153 32.0171 4.7153C38.4678 4.7153 43.9027 8.9581 45.55 14.7394Z" fill="#47B6F2"/>
<path d="M61.4641 10.9725V15.393C61.4641 15.49 61.5126 15.5506 61.6096 15.5749C62.0826 15.6477 62.5798 15.6841 63.1013 15.6841C64.2413 15.6841 65.0781 15.4718 65.6117 15.0474C66.1453 14.6229 66.4121 13.9741 66.4121 13.1009C66.4121 12.3126 66.0907 11.7365 65.448 11.3727C64.8052 10.9967 63.7198 10.8088 62.1917 10.8088H61.6278C61.5186 10.8088 61.4641 10.8633 61.4641 10.9725ZM61.4641 5.53329V9.0806C61.4641 9.18974 61.5186 9.24432 61.6278 9.24432H62.1917C63.5257 9.24432 64.4838 9.07453 65.0659 8.73496C65.6602 8.39539 65.9573 7.87997 65.9573 7.1887C65.9573 6.52168 65.7208 6.03052 65.2479 5.7152C64.7749 5.39988 63.9987 5.24222 62.9194 5.24222C62.4585 5.24222 62.0219 5.27861 61.6096 5.35137C61.5126 5.37563 61.4641 5.43626 61.4641 5.53329ZM60.4999 17.1575C60.1967 17.1212 59.9481 16.9938 59.7541 16.7755C59.56 16.5451 59.463 16.2783 59.463 15.9751V4.95116C59.463 4.64797 59.56 4.38723 59.7541 4.16894C59.9481 3.93851 60.1967 3.80511 60.4999 3.76873C61.2276 3.68383 62.0341 3.64139 62.9194 3.64139C66.1938 3.64139 67.831 4.73287 67.831 6.91583C67.831 7.64348 67.5824 8.28624 67.0852 8.84411C66.588 9.38985 65.9331 9.74155 65.1205 9.89921C65.1084 9.89921 65.1023 9.90527 65.1023 9.9174C65.1023 9.92953 65.1084 9.93559 65.1205 9.93559C66.1392 10.0932 66.9336 10.4692 67.5036 11.0635C68.0857 11.6577 68.3768 12.3975 68.3768 13.2828C68.3768 15.9509 66.6183 17.2849 63.1013 17.2849C62.1432 17.2849 61.2761 17.2424 60.4999 17.1575Z" fill="#47B6F2"/>
<path d="M73.368 17.2849C72.3008 17.2849 71.5186 16.9938 71.0213 16.4117C70.5241 15.8175 70.2755 14.8351 70.2755 13.4647V8.57124C70.2755 8.31656 70.3664 8.09826 70.5484 7.91635C70.7303 7.73444 70.9486 7.64348 71.2032 7.64348C71.4579 7.64348 71.6762 7.73444 71.8581 7.91635C72.0522 8.09826 72.1492 8.31656 72.1492 8.57124V13.1918C72.1492 14.1984 72.2826 14.8897 72.5494 15.2657C72.8162 15.6416 73.271 15.8296 73.9138 15.8296C74.4838 15.8296 75.0174 15.581 75.5146 15.0837C76.0239 14.5744 76.2786 14.0347 76.2786 13.4647V8.58943C76.2786 8.32262 76.3696 8.09826 76.5515 7.91635C76.7455 7.73444 76.976 7.64348 77.2428 7.64348C77.5096 7.64348 77.7339 7.73444 77.9158 7.91635C78.0978 8.09826 78.1887 8.32262 78.1887 8.58943V16.2116C78.1887 16.4542 78.0978 16.6664 77.9158 16.8483C77.7461 17.0181 77.5399 17.103 77.2973 17.103C77.0548 17.103 76.8426 17.0181 76.6606 16.8483C76.4787 16.6664 76.3817 16.4542 76.3696 16.2116V15.9387C76.3696 15.9266 76.3635 15.9205 76.3514 15.9205C76.3393 15.9205 76.3271 15.9266 76.315 15.9387C75.454 16.8362 74.4716 17.2849 73.368 17.2849Z" fill="#47B6F2"/>
<path d="M84.5415 8.91687C82.9649 8.91687 82.1766 10.069 82.1766 12.3732C82.1766 13.5375 82.3828 14.4046 82.7951 14.9746C83.2196 15.5446 83.8017 15.8296 84.5415 15.8296C85.1842 15.8296 85.736 15.6173 86.1969 15.1929C86.6699 14.7684 86.9063 14.2833 86.9063 13.7376V11.0089C86.9063 10.4631 86.6699 9.97804 86.1969 9.55357C85.736 9.12911 85.1842 8.91687 84.5415 8.91687ZM84.0867 17.2849C82.9831 17.2849 82.0675 16.8422 81.3398 15.9569C80.6243 15.0716 80.2665 13.877 80.2665 12.3732C80.2665 10.8209 80.6121 9.61421 81.3034 8.75315C82.0068 7.8921 82.9346 7.46157 84.0867 7.46157C85.166 7.46157 86.0877 7.84965 86.8518 8.62581C86.8639 8.63794 86.876 8.644 86.8882 8.644C86.9003 8.644 86.9063 8.63794 86.9063 8.62581V4.40542C86.9063 4.13862 86.9973 3.91426 87.1792 3.73234C87.3733 3.55043 87.6037 3.45947 87.8705 3.45947C88.1373 3.45947 88.3617 3.55043 88.5436 3.73234C88.7255 3.91426 88.8164 4.13862 88.8164 4.40542V16.2116C88.8164 16.4542 88.7255 16.6664 88.5436 16.8483C88.3738 17.0181 88.1676 17.103 87.9251 17.103C87.6825 17.103 87.4703 17.0181 87.2884 16.8483C87.1186 16.6664 87.0276 16.4542 87.0155 16.2116L86.9973 15.9387C86.9973 15.9266 86.9912 15.9205 86.9791 15.9205C86.967 15.9205 86.9549 15.9266 86.9427 15.9387C86.494 16.436 86.0513 16.7877 85.6148 16.9938C85.1782 17.1879 84.6688 17.2849 84.0867 17.2849Z" fill="#47B6F2"/>
<path d="M95.2538 8.91687C93.6772 8.91687 92.8889 10.069 92.8889 12.3732C92.8889 13.5375 93.095 14.4046 93.5074 14.9746C93.9318 15.5446 94.514 15.8296 95.2538 15.8296C95.8965 15.8296 96.4483 15.6173 96.9092 15.1929C97.3821 14.7684 97.6186 14.2833 97.6186 13.7376V11.0089C97.6186 10.4631 97.3821 9.97804 96.9092 9.55357C96.4483 9.12911 95.8965 8.91687 95.2538 8.91687ZM94.799 17.2849C93.6954 17.2849 92.7797 16.8422 92.0521 15.9569C91.3365 15.0716 90.9788 13.877 90.9788 12.3732C90.9788 10.8209 91.3244 9.61421 92.0157 8.75315C92.7191 7.8921 93.6468 7.46157 94.799 7.46157C95.8783 7.46157 96.8 7.84965 97.5641 8.62581C97.5762 8.63794 97.5883 8.644 97.6004 8.644C97.6126 8.644 97.6186 8.63794 97.6186 8.62581V4.40542C97.6186 4.13862 97.7096 3.91426 97.8915 3.73234C98.0855 3.55043 98.316 3.45947 98.5828 3.45947C98.8496 3.45947 99.0739 3.55043 99.2558 3.73234C99.4378 3.91426 99.5287 4.13862 99.5287 4.40542V16.2116C99.5287 16.4542 99.4378 16.6664 99.2558 16.8483C99.0861 17.0181 98.8799 17.103 98.6373 17.103C98.3948 17.103 98.1826 17.0181 98.0006 16.8483C97.8309 16.6664 97.7399 16.4542 97.7278 16.2116L97.7096 15.9387C97.7096 15.9266 97.7035 15.9205 97.6914 15.9205C97.6793 15.9205 97.6671 15.9266 97.655 15.9387C97.2063 16.436 96.7636 16.7877 96.327 16.9938C95.8904 17.1879 95.3811 17.2849 94.799 17.2849Z" fill="#47B6F2"/>
<path d="M104.656 16.9574L101.673 8.58943C101.588 8.35901 101.618 8.14677 101.764 7.95273C101.909 7.74656 102.103 7.64348 102.346 7.64348C102.649 7.64348 102.922 7.73444 103.165 7.91635C103.407 8.08614 103.571 8.3105 103.656 8.58943L105.693 14.9018C105.693 14.914 105.699 14.92 105.711 14.92C105.723 14.92 105.73 14.914 105.73 14.9018L108.003 8.55305C108.113 8.27411 108.282 8.05582 108.513 7.89816C108.743 7.72837 109.004 7.64348 109.295 7.64348C109.525 7.64348 109.701 7.7405 109.823 7.93454C109.956 8.11646 109.98 8.31656 109.895 8.53486L105.257 20.2137C105.147 20.4805 104.972 20.6927 104.729 20.8504C104.486 21.0202 104.22 21.1051 103.929 21.1051C103.71 21.1051 103.534 21.0081 103.401 20.814C103.28 20.62 103.262 20.4199 103.346 20.2137L104.656 17.2485C104.681 17.2 104.693 17.1515 104.693 17.103C104.693 17.0545 104.681 17.006 104.656 16.9574Z" fill="#47B6F2"/>
<path d="M60.4999 33.6445C60.221 33.6445 59.9784 33.5414 59.7723 33.3353C59.5661 33.1291 59.463 32.8866 59.463 32.6076V21.4018C59.463 21.1228 59.5661 20.8803 59.7723 20.6741C59.9784 20.4679 60.221 20.3649 60.4999 20.3649H60.5181C60.797 20.3649 61.0396 20.4679 61.2458 20.6741C61.4519 20.8803 61.555 21.1228 61.555 21.4018V31.8072C61.555 31.9163 61.6035 31.9709 61.7005 31.9709H66.8123C67.0427 31.9709 67.2368 32.0558 67.3944 32.2256C67.5642 32.3833 67.6491 32.5773 67.6491 32.8077C67.6491 33.0381 67.5642 33.2383 67.3944 33.408C67.2368 33.5657 67.0427 33.6445 66.8123 33.6445H60.4999Z" fill="#47B6F2"/>
<path d="M75.9687 28.9148C75.9687 26.6105 75.1319 25.4584 73.4583 25.4584C71.7847 25.4584 70.9479 26.6105 70.9479 28.9148C70.9479 31.219 71.7847 32.3711 73.4583 32.3711C75.1319 32.3711 75.9687 31.219 75.9687 28.9148ZM76.7327 32.553C75.9444 33.402 74.8529 33.8264 73.4583 33.8264C72.0636 33.8264 70.9721 33.402 70.1838 32.553C69.3955 31.692 69.0014 30.4792 69.0014 28.9148C69.0014 27.3503 69.3955 26.1436 70.1838 25.2947C70.9721 24.4336 72.0636 24.0031 73.4583 24.0031C74.8529 24.0031 75.9444 24.4336 76.7327 25.2947C77.521 26.1436 77.9151 27.3503 77.9151 28.9148C77.9151 30.4792 77.521 31.692 76.7327 32.553Z" fill="#47B6F2"/>
<path d="M84.3631 28.8784C83.3687 28.8784 82.6167 29.0482 82.1074 29.3878C81.6102 29.7152 81.3615 30.1639 81.3615 30.7339C81.3615 31.1826 81.4949 31.5525 81.7618 31.8436C82.0286 32.1346 82.3499 32.2802 82.7259 32.2802C83.5263 32.2802 84.163 32.0316 84.636 31.5343C85.1211 31.025 85.3636 30.3337 85.3636 29.4605V29.0239C85.3636 28.9269 85.3091 28.8784 85.1999 28.8784H84.3631ZM82.2711 33.8264C81.4464 33.8264 80.7673 33.5596 80.2337 33.026C79.7122 32.4924 79.4515 31.789 79.4515 30.9158C79.4515 29.8486 79.8577 29.0239 80.6703 28.4418C81.4828 27.8476 82.7138 27.5504 84.3631 27.5504H85.1999C85.3091 27.5504 85.3636 27.4959 85.3636 27.3867V27.1866C85.3636 26.5438 85.212 26.0951 84.9088 25.8404C84.6057 25.5858 84.0599 25.4584 83.2716 25.4584C82.5682 25.4584 81.7314 25.604 80.7612 25.895C80.5793 25.9557 80.4035 25.9314 80.2337 25.8223C80.076 25.701 79.9972 25.5433 79.9972 25.3493C79.9972 25.1067 80.07 24.8884 80.2155 24.6944C80.361 24.5003 80.549 24.3791 80.7794 24.3306C81.6526 24.1123 82.4833 24.0031 83.2716 24.0031C84.7997 24.0031 85.8487 24.276 86.4187 24.8217C86.9887 25.3675 87.2737 26.368 87.2737 27.8233V32.7532C87.2737 32.9957 87.1828 33.2079 87.0009 33.3898C86.8311 33.5596 86.6249 33.6445 86.3824 33.6445C86.1398 33.6445 85.9276 33.5596 85.7457 33.3898C85.5759 33.2079 85.4849 32.9957 85.4728 32.7532L85.4546 32.2984C85.4546 32.2862 85.4485 32.2802 85.4364 32.2802C85.4121 32.2802 85.4 32.2862 85.4 32.2984C84.6966 33.3171 83.6537 33.8264 82.2711 33.8264Z" fill="#47B6F2"/>
<path d="M91.4385 33.3717C91.2566 33.5536 91.0323 33.6445 90.7655 33.6445C90.4987 33.6445 90.2682 33.5536 90.0742 33.3717C89.8923 33.1897 89.8013 32.9654 89.8013 32.6986V25.0764C89.8013 24.8339 89.8862 24.6277 90.056 24.4579C90.2379 24.276 90.4502 24.185 90.6927 24.185C90.9353 24.185 91.1414 24.276 91.3112 24.4579C91.4931 24.6277 91.5901 24.8339 91.6023 25.0764L91.6205 25.3493C91.6205 25.3614 91.6265 25.3675 91.6386 25.3675C91.6508 25.3675 91.6629 25.3614 91.675 25.3493C92.5361 24.4518 93.5184 24.0031 94.622 24.0031C95.7256 24.0031 96.5321 24.3184 97.0415 24.9491C97.5508 25.5676 97.8055 26.5863 97.8055 28.0052V32.7168C97.8055 32.9714 97.7146 33.1897 97.5326 33.3717C97.3507 33.5536 97.1324 33.6445 96.8778 33.6445C96.6231 33.6445 96.3987 33.5536 96.2047 33.3717C96.0228 33.1897 95.9318 32.9714 95.9318 32.7168V28.2781C95.9318 27.1866 95.7984 26.4468 95.5316 26.0587C95.2648 25.6585 94.7797 25.4584 94.0763 25.4584C93.5063 25.4584 92.9666 25.7131 92.4573 26.2225C91.96 26.7197 91.7114 27.2533 91.7114 27.8233V32.6986C91.7114 32.9654 91.6205 33.1897 91.4385 33.3717Z" fill="#47B6F2"/>
</svg>
